<svg width="104" height="38" viewBox="0 0 104 38" fill="none" xmlns="http://www.w3.org/2000/svg">
<path d="M55.1009 29.6645H54.0366V33.1062C54.0366 33.3044 53.9917 33.452 53.9019 33.549C53.8121 33.6438 53.6961 33.6912 53.5537 33.6912C53.4092 33.6912 53.2909 33.6427 53.199 33.5457C53.1092 33.4488 53.0643 33.3023 53.0643 33.1062V29.6645H52C51.8336 29.6645 51.7098 29.629 51.6288 29.5579C51.5478 29.4846 51.5073 29.3887 51.5073 29.2702C51.5073 29.1474 51.5489 29.0505 51.6321 28.9794C51.7175 28.9083 51.8401 28.8728 52 28.8728H55.1009C55.2695 28.8728 55.3943 28.9094 55.4753 28.9826C55.5585 29.0559 55.6001 29.1518 55.6001 29.2702C55.6001 29.3887 55.5585 29.4846 55.4753 29.5579C55.3921 29.629 55.2673 29.6645 55.1009 29.6645Z" fill="black"/>
<path d="M58.1918 32.1141H56.4378C56.44 32.3145 56.4805 32.4911 56.5593 32.6441C56.6403 32.7971 56.7465 32.9123 56.8779 32.9899C57.0115 33.0675 57.1582 33.1062 57.3181 33.1062C57.4254 33.1062 57.5228 33.0944 57.6104 33.0707C57.7002 33.0448 57.7867 33.0061 57.8699 32.9544C57.9532 32.9005 58.0298 32.8434 58.0999 32.7831C58.17 32.7227 58.2608 32.6409 58.3725 32.5375C58.4185 32.4987 58.4842 32.4793 58.5696 32.4793C58.6616 32.4793 58.736 32.5041 58.793 32.5536C58.8499 32.6032 58.8784 32.6732 58.8784 32.7637C58.8784 32.8434 58.8466 32.9371 58.7831 33.0448C58.7196 33.1504 58.6233 33.2527 58.4941 33.3518C58.367 33.4488 58.2061 33.5296 58.0112 33.5942C57.8185 33.6589 57.5962 33.6912 57.3444 33.6912C56.7684 33.6912 56.3206 33.5296 56.0009 33.2064C55.6812 32.8833 55.5213 32.4448 55.5213 31.8911C55.5213 31.6304 55.5607 31.3891 55.6396 31.1672C55.7184 30.9432 55.8334 30.7514 55.9845 30.592C56.1356 30.4326 56.3217 30.3108 56.5429 30.2268C56.7641 30.1406 57.0093 30.0976 57.2787 30.0976C57.6291 30.0976 57.9291 30.1708 58.1787 30.3173C58.4305 30.4617 58.6189 30.6491 58.7437 30.8796C58.8685 31.1101 58.9309 31.345 58.9309 31.5841C58.9309 31.806 58.8663 31.9504 58.7371 32.0172C58.6079 32.0818 58.4262 32.1141 58.1918 32.1141ZM56.4378 31.6132H58.0637C58.0418 31.3116 57.9586 31.0864 57.8141 30.9378C57.6718 30.787 57.4834 30.7116 57.2491 30.7116C57.0257 30.7116 56.8418 30.7881 56.6973 30.941C56.5549 31.0918 56.4684 31.3159 56.4378 31.6132Z" fill="black"/>
<path d="M62.9055 32.5989C62.9055 32.7087 62.8716 32.8262 62.8037 32.9511C62.738 33.0761 62.6362 33.1956 62.4982 33.3098C62.3625 33.4219 62.1905 33.5124 61.9825 33.5813C61.7745 33.6502 61.5402 33.6847 61.2796 33.6847C60.7255 33.6847 60.293 33.5264 59.9821 33.2097C59.6711 32.8908 59.5156 32.4642 59.5156 31.9299C59.5156 31.568 59.5868 31.248 59.7291 30.9701C59.8715 30.6922 60.0773 30.4778 60.3467 30.327C60.616 30.174 60.9379 30.0976 61.3124 30.0976C61.5445 30.0976 61.757 30.1309 61.9497 30.1977C62.1446 30.2645 62.3088 30.3507 62.4424 30.4563C62.5782 30.5618 62.6811 30.6749 62.7512 30.7956C62.8234 30.9141 62.8596 31.025 62.8596 31.1285C62.8596 31.234 62.819 31.3234 62.738 31.3967C62.6592 31.4699 62.5628 31.5066 62.449 31.5066C62.3745 31.5066 62.3121 31.4883 62.2617 31.4516C62.2135 31.4128 62.1588 31.3514 62.0975 31.2674C61.988 31.1037 61.873 30.9809 61.7526 30.899C61.6343 30.8171 61.4832 30.7762 61.2993 30.7762C61.0343 30.7762 60.8208 30.8785 60.6587 31.0832C60.4967 31.2857 60.4157 31.5637 60.4157 31.917C60.4157 32.0829 60.4365 32.2358 60.4781 32.3759C60.5197 32.5138 60.5799 32.6323 60.6587 32.7314C60.7376 32.8283 60.8328 32.9026 60.9445 32.9544C61.0562 33.0039 61.1788 33.0287 61.3124 33.0287C61.492 33.0287 61.6453 32.9877 61.7723 32.9059C61.9015 32.824 62.0154 32.699 62.1139 32.531C62.1687 32.4319 62.2278 32.3543 62.2913 32.2983C62.3548 32.2423 62.4325 32.2143 62.5245 32.2143C62.634 32.2143 62.7249 32.2552 62.7971 32.3371C62.8694 32.419 62.9055 32.5062 62.9055 32.5989Z" fill="black"/>
<path d="M64.3968 29.3284V30.6372C64.5107 30.508 64.6213 30.4056 64.7286 30.3302C64.8381 30.2548 64.9585 30.1988 65.0899 30.1622C65.2213 30.1234 65.3626 30.104 65.5137 30.104C65.7414 30.104 65.9429 30.1514 66.1181 30.2462C66.2955 30.341 66.4345 30.4789 66.5352 30.6599C66.5988 30.7654 66.6415 30.8839 66.6634 31.0153C66.6853 31.1446 66.6962 31.2943 66.6962 31.4645V33.1547C66.6962 33.3314 66.6546 33.465 66.5714 33.5554C66.4904 33.6459 66.382 33.6912 66.2462 33.6912C65.9506 33.6912 65.8027 33.5124 65.8027 33.1547V31.6649C65.8027 31.3827 65.76 31.1662 65.6746 31.0153C65.5892 30.8624 65.4272 30.7859 65.1885 30.7859C65.0286 30.7859 64.8841 30.8311 64.7549 30.9216C64.6279 31.01 64.5326 31.1317 64.4691 31.2868C64.4209 31.4182 64.3968 31.652 64.3968 31.9881V33.1547C64.3968 33.3292 64.3563 33.4628 64.2753 33.5554C64.1965 33.6459 64.0859 33.6912 63.9435 33.6912C63.6479 33.6912 63.5001 33.5124 63.5001 33.1547V29.3284C63.5001 29.1496 63.5384 29.016 63.6151 28.9277C63.6939 28.8372 63.8034 28.792 63.9435 28.792C64.0859 28.792 64.1965 28.8372 64.2753 28.9277C64.3563 29.0182 64.3968 29.1518 64.3968 29.3284Z" fill="black"/>
<path d="M68.401 30.592V30.6986C68.5587 30.494 68.7306 30.3442 68.9167 30.2494C69.1051 30.1525 69.3208 30.104 69.5638 30.104C69.8003 30.104 70.0117 30.1546 70.1978 30.2559C70.3839 30.3572 70.523 30.5004 70.615 30.6857C70.6741 30.7934 70.7124 30.9098 70.7299 31.0347C70.7475 31.1597 70.7562 31.3191 70.7562 31.513V33.1547C70.7562 33.3314 70.7146 33.465 70.6314 33.5554C70.5504 33.6459 70.4442 33.6912 70.3128 33.6912C70.1792 33.6912 70.0708 33.6448 69.9876 33.5522C69.9044 33.4596 69.8627 33.3271 69.8627 33.1547V31.6843C69.8627 31.3935 69.8211 31.1715 69.7379 31.0186C69.6569 30.8635 69.4938 30.7859 69.2485 30.7859C69.0886 30.7859 68.943 30.8333 68.8116 30.9281C68.6802 31.0207 68.5839 31.1489 68.5226 31.3127C68.4788 31.4441 68.4569 31.6897 68.4569 32.0495V33.1547C68.4569 33.3335 68.4142 33.4682 68.3287 33.5587C68.2455 33.647 68.1371 33.6912 68.0036 33.6912C67.8744 33.6912 67.7681 33.6448 67.6849 33.5522C67.6017 33.4596 67.5601 33.3271 67.5601 33.1547V30.6049C67.5601 30.4369 67.5973 30.3119 67.6718 30.2301C67.7462 30.146 67.8481 30.104 67.9773 30.104C68.0561 30.104 68.1273 30.1223 68.1908 30.159C68.2543 30.1956 68.3047 30.2505 68.3419 30.3238C68.3813 30.397 68.401 30.4864 68.401 30.592Z" fill="black"/>
<path d="M75.01 31.8976C75.01 32.1604 74.9684 32.4028 74.8852 32.6247C74.802 32.8466 74.6816 33.0373 74.5239 33.1967C74.3662 33.3562 74.1779 33.479 73.9589 33.5651C73.7399 33.6492 73.4936 33.6912 73.2198 33.6912C72.9483 33.6912 72.7041 33.6481 72.4873 33.5619C72.2705 33.4757 72.0822 33.3529 71.9223 33.1935C71.7646 33.0319 71.6442 32.8423 71.561 32.6247C71.48 32.405 71.4395 32.1626 71.4395 31.8976C71.4395 31.6304 71.4811 31.3859 71.5643 31.164C71.6475 30.9421 71.7668 30.7525 71.9223 30.5952C72.0778 30.438 72.2661 30.3173 72.4873 30.2333C72.7085 30.1471 72.9527 30.104 73.2198 30.104C73.4914 30.104 73.7377 30.1471 73.9589 30.2333C74.1801 30.3195 74.3695 30.4423 74.5272 30.6017C74.6848 30.7611 74.8042 30.9507 74.8852 31.1705C74.9684 31.3902 75.01 31.6326 75.01 31.8976ZM74.11 31.8976C74.11 31.5378 74.029 31.2577 73.8669 31.0574C73.7071 30.857 73.4914 30.7568 73.2198 30.7568C73.0446 30.7568 72.8902 30.8021 72.7567 30.8925C72.6231 30.9809 72.5202 31.1123 72.4479 31.2868C72.3756 31.4613 72.3395 31.6649 72.3395 31.8976C72.3395 32.1281 72.3745 32.3296 72.4446 32.5019C72.5169 32.6743 72.6187 32.8068 72.7501 32.8994C72.8837 32.9899 73.0402 33.0351 73.2198 33.0351C73.4914 33.0351 73.7071 32.935 73.8669 32.7346C74.029 32.5321 74.11 32.2531 74.11 31.8976Z" fill="black"/>
<path d="M75.7195 33.1547V29.3284C75.7195 29.1518 75.759 29.0182 75.8378 28.9277C75.9188 28.8372 76.0272 28.792 76.163 28.792C76.2988 28.792 76.4083 28.8372 76.4915 28.9277C76.5747 29.016 76.6163 29.1496 76.6163 29.3284V33.1547C76.6163 33.3335 76.5736 33.4682 76.4882 33.5587C76.405 33.647 76.2966 33.6912 76.163 33.6912C76.0316 33.6912 75.9243 33.6448 75.8411 33.5522C75.7601 33.4596 75.7195 33.3271 75.7195 33.1547Z" fill="black"/>
<path d="M80.903 31.8976C80.903 32.1604 80.8614 32.4028 80.7781 32.6247C80.6949 32.8466 80.5745 33.0373 80.4168 33.1967C80.2591 33.3562 80.0708 33.479 79.8518 33.5651C79.6328 33.6492 79.3865 33.6912 79.1127 33.6912C78.8412 33.6912 78.597 33.6481 78.3802 33.5619C78.1634 33.4757 77.9751 33.3529 77.8153 33.1935C77.6576 33.0319 77.5371 32.8423 77.4539 32.6247C77.3729 32.405 77.3324 32.1626 77.3324 31.8976C77.3324 31.6304 77.374 31.3859 77.4572 31.164C77.5404 30.9421 77.6598 30.7525 77.8153 30.5952C77.9707 30.438 78.1591 30.3173 78.3802 30.2333C78.6014 30.1471 78.8456 30.104 79.1127 30.104C79.3843 30.104 79.6307 30.1471 79.8518 30.2333C80.073 30.3195 80.2624 30.4423 80.4201 30.6017C80.5778 30.7611 80.6971 30.9507 80.7781 31.1705C80.8614 31.3902 80.903 31.6326 80.903 31.8976ZM80.0029 31.8976C80.0029 31.5378 79.9219 31.2577 79.7599 31.0574C79.6 30.857 79.3843 30.7568 79.1127 30.7568C78.9376 30.7568 78.7832 30.8021 78.6496 30.8925C78.516 30.9809 78.4131 31.1123 78.3408 31.2868C78.2686 31.4613 78.2324 31.6649 78.2324 31.8976C78.2324 32.1281 78.2675 32.3296 78.3375 32.5019C78.4098 32.6743 78.5116 32.8068 78.643 32.8994C78.7766 32.9899 78.9332 33.0351 79.1127 33.0351C79.3843 33.0351 79.6 32.935 79.7599 32.7346C79.9219 32.5321 80.0029 32.2531 80.0029 31.8976Z" fill="black"/>
<path d="M84.9104 30.7504V33.3131C84.9104 33.6061 84.8787 33.8581 84.8152 34.0693C84.7517 34.2804 84.6498 34.4549 84.5097 34.5928C84.3695 34.7307 84.1856 34.833 83.9578 34.8998C83.7323 34.9666 83.4509 35 83.1136 35C82.8049 35 82.5289 34.9569 82.2859 34.8707C82.0428 34.7867 81.8556 34.6768 81.7242 34.5411C81.5928 34.4075 81.5271 34.2696 81.5271 34.1274C81.5271 34.0197 81.5643 33.9314 81.6388 33.8624C81.7132 33.7957 81.803 33.7623 81.9081 33.7623C82.0395 33.7623 82.1545 33.8194 82.253 33.9335C82.3012 33.9917 82.3505 34.0499 82.4008 34.1081C82.4534 34.1684 82.5103 34.219 82.5716 34.2599C82.6351 34.303 82.7107 34.3343 82.7983 34.3537C82.8859 34.3752 82.9866 34.386 83.1005 34.386C83.3326 34.386 83.5122 34.3537 83.6392 34.289C83.7684 34.2266 83.8582 34.1382 83.9086 34.024C83.9611 33.9098 83.9918 33.787 84.0005 33.6556C84.0093 33.5264 84.0159 33.3174 84.0202 33.0287C83.8823 33.2183 83.7224 33.3626 83.5407 33.4617C83.3611 33.5608 83.1465 33.6104 82.8968 33.6104C82.5968 33.6104 82.334 33.535 82.1085 33.3842C81.8851 33.2334 81.7132 33.0222 81.5928 32.7508C81.4723 32.4793 81.4121 32.1658 81.4121 31.8103C81.4121 31.5453 81.4482 31.3062 81.5205 31.0929C81.595 30.8796 81.7001 30.6997 81.8358 30.5532C81.9716 30.4067 82.1282 30.2968 82.3056 30.2236C82.483 30.1482 82.6779 30.1105 82.8903 30.1105C83.1443 30.1105 83.3644 30.159 83.5505 30.2559C83.7367 30.3507 83.9096 30.5004 84.0695 30.7051V30.5855C84.0695 30.4326 84.1078 30.3141 84.1845 30.2301C84.2611 30.146 84.3597 30.104 84.4801 30.104C84.6531 30.104 84.7681 30.16 84.825 30.2721C84.882 30.3819 84.9104 30.5414 84.9104 30.7504ZM82.3121 31.8685C82.3121 32.2261 82.391 32.4965 82.5486 32.6797C82.7085 32.8628 82.9144 32.9544 83.1662 32.9544C83.3151 32.9544 83.4553 32.9156 83.5866 32.838C83.7202 32.7583 83.8286 32.6398 83.9118 32.4825C83.9951 32.3231 84.0367 32.1303 84.0367 31.9041C84.0367 31.5443 83.9556 31.2642 83.7936 31.0638C83.6337 30.8635 83.4224 30.7633 83.1596 30.7633C82.9034 30.7633 82.6976 30.8592 82.5421 31.0509C82.3888 31.2426 82.3121 31.5152 82.3121 31.8685Z" fill="black"/>
<path d="M86.6448 33.801L86.7269 33.6039L85.6232 30.8699C85.5553 30.7126 85.5214 30.5985 85.5214 30.5274C85.5214 30.452 85.5411 30.3819 85.5805 30.3173C85.6199 30.2527 85.6736 30.201 85.7415 30.1622C85.8116 30.1234 85.8838 30.104 85.9583 30.104C86.0875 30.104 86.1849 30.145 86.2506 30.2268C86.3163 30.3065 86.3743 30.4218 86.4247 30.5726L87.1835 32.7443L87.9029 30.7245C87.9598 30.5608 88.0113 30.4326 88.0573 30.3399C88.1032 30.2473 88.1514 30.1848 88.2018 30.1525C88.2544 30.1202 88.3277 30.104 88.4219 30.104C88.4898 30.104 88.5544 30.1223 88.6157 30.159C88.6792 30.1934 88.7274 30.2408 88.7602 30.3011C88.7952 30.3615 88.8128 30.425 88.8128 30.4918C88.804 30.5328 88.7898 30.5909 88.7701 30.6663C88.7504 30.7417 88.7263 30.8182 88.6978 30.8958L87.5284 33.9077C87.4277 34.1727 87.3291 34.3806 87.2328 34.5314C87.1364 34.6822 87.0083 34.7975 86.8485 34.8772C86.6908 34.9591 86.4773 35 86.2079 35C85.9451 35 85.748 34.972 85.6167 34.916C85.4853 34.86 85.4196 34.7576 85.4196 34.609C85.4196 34.5077 85.4502 34.4291 85.5115 34.3731C85.575 34.3192 85.6681 34.2923 85.7907 34.2923C85.8389 34.2923 85.886 34.2987 85.932 34.3117C85.9889 34.3246 86.0382 34.331 86.0798 34.331C86.1827 34.331 86.2638 34.316 86.3229 34.2858C86.382 34.2556 86.4346 34.2029 86.4806 34.1274C86.5287 34.0542 86.5835 33.9454 86.6448 33.801Z" fill="black"/>
<path d="M57.207 26.1646C56.0708 26.1646 55.0402 25.8967 54.1152 25.3608C53.2002 24.8249 52.4763 24.0856 51.9434 23.1428C51.4205 22.1901 51.1591 21.1282 51.1591 19.9572V18.5431C51.1591 18.4637 51.1993 18.424 51.2797 18.424H54.7788C54.8592 18.424 54.8994 18.4786 54.8994 18.5877V19.9572C54.8994 20.7015 55.1156 21.3118 55.548 21.7882C55.9803 22.2546 56.5333 22.4878 57.207 22.4878C57.8304 22.4878 58.3683 22.2348 58.8208 21.7286C59.2732 21.2126 59.4995 20.6221 59.4995 19.9572V4.80347C59.4995 4.72408 59.5397 4.68439 59.6201 4.68439H63.089C63.1694 4.68439 63.2097 4.73401 63.2097 4.83324L63.2398 19.9572C63.2398 21.0687 62.9683 22.0958 62.4254 23.0386C61.8724 23.9913 61.1434 24.7505 60.2385 25.3161C59.3336 25.8818 58.3231 26.1646 57.207 26.1646Z" fill="#1C274C"/>
<path d="M64.5218 25.718L68.3526 4.7737C68.3728 4.69431 68.423 4.65462 68.5035 4.65462H72.9828C73.0633 4.65462 73.1136 4.69431 73.1337 4.7737L76.8137 25.718C76.8237 25.8173 76.7835 25.8669 76.693 25.8669H73.2694C73.1689 25.8669 73.1136 25.8173 73.1035 25.718L72.7717 23.4852H68.5638L68.232 25.718C68.2219 25.8173 68.1717 25.8669 68.0812 25.8669H64.6425C64.562 25.8669 64.5218 25.8173 64.5218 25.718ZM70.5697 11.6658L69.1822 20.2252H72.1533L70.8864 11.6658L70.7055 10.5345L70.5697 11.6658Z" fill="#1C274C"/>
<path d="M88.8492 25.8669H78.8648C78.7844 25.8669 78.7442 25.8173 78.7442 25.718L78.7744 4.80347C78.7744 4.70423 78.8246 4.65462 78.9252 4.65462H82.3639C82.4644 4.65462 82.5147 4.70423 82.5147 4.80347L82.4845 22.1157H88.8492C88.9497 22.1157 89 22.1653 89 22.2645V25.718C89 25.8173 88.9497 25.8669 88.8492 25.8669Z" fill="#1C274C"/>
<path fill-rule="evenodd" clip-rule="evenodd" d="M17.3398 5.30198C15 7.60394 15 11.3089 15 18.7188C15 26.1287 15 29.8338 17.3398 32.1357C19.6796 34.4377 23.4455 34.4377 30.9773 34.4377C38.509 34.4377 42.275 34.4377 44.6147 32.1357C46.9545 29.8338 46.9545 26.1287 46.9545 18.7188C46.9545 11.3089 46.9545 7.60394 44.6147 5.30198C42.275 3 38.509 3 30.9773 3C23.4455 3 19.6796 3 17.3398 5.30198Z" fill="#1C274C"/>
<path d="M32.5115 6.81646C31.288 5.79046 29.4698 5.9568 28.4502 7.18802C27.4307 8.41924 27.596 10.249 28.8194 11.2751L29.7207 12.0308C32.2527 14.1542 33.9083 15.5518 34.9703 16.7354C35.9787 17.8594 36.0747 18.386 36.0747 18.7187C36.0747 19.0515 35.9787 19.5785 34.9703 20.7021C33.9083 21.8857 32.2527 23.2832 29.7207 25.4067L28.8194 26.1627C27.596 27.1884 27.4307 29.0182 28.4502 30.2497C29.4698 31.4809 31.288 31.6473 32.5115 30.6212L33.5742 29.7297C35.9001 27.7796 37.8802 26.119 39.2505 24.5918C40.706 22.9698 41.8418 21.1045 41.8418 18.7187C41.8418 16.333 40.706 14.4676 39.2505 12.8457C37.8808 11.3192 35.9019 9.65971 33.5774 7.7104L32.5115 6.81646Z" fill="white"/>
</svg>
