<svg width="60" height="60" viewBox="0 0 60 60" fill="none" xmlns="http://www.w3.org/2000/svg">
<path d="M35.9525 22.568C37.4417 22.0478 39.0445 21.7647 40.7142 21.7647C42.351 21.7647 43.9232 22.0367 45.3877 22.5375M45.3877 22.5375C50.9825 24.4506 55 29.7027 55 35.8822C55 43.6792 48.604 50 40.7142 50H15.7143C9.79695 50 5 45.2595 5 39.4117C5 33.564 9.79695 28.8235 15.7143 28.8235C16.4246 28.8235 17.1187 28.8918 17.7904 29.0223M45.3877 22.5375C44.5927 15.4843 38.5397 10 31.1905 10C23.3007 10 16.9047 16.3207 16.9047 24.1177C16.9047 25.8423 17.2176 27.4945 17.7904 29.0223M17.7904 29.0223C19.2015 29.296 20.5132 29.8435 21.6667 30.6065" stroke="black" stroke-width="3.75" stroke-linecap="round"/>
</svg>
