<svg width="60" height="60" viewBox="0 0 60 60" fill="none" xmlns="http://www.w3.org/2000/svg">
<g clip-path="url(#clip0_3199_66)">
<path d="M26.25 33.75H15V37.5H26.25V33.75Z" fill="black"/>
<path d="M33.75 41.25H15V45H33.75V41.25Z" fill="black"/>
<path d="M48.75 7.5H11.25C10.2558 7.50124 9.30271 7.89673 8.59972 8.59972C7.89673 9.30271 7.50124 10.2558 7.5 11.25V48.75C7.50124 49.7442 7.89673 50.6973 8.59972 51.4003C9.30271 52.1033 10.2558 52.4988 11.25 52.5H48.75C49.7442 52.4988 50.6973 52.1033 51.4003 51.4003C52.1033 50.6973 52.4988 49.7442 52.5 48.75V11.25C52.4988 10.2558 52.1033 9.30271 51.4003 8.59972C50.6973 7.89673 49.7442 7.50124 48.75 7.5ZM33.75 11.25V18.75H26.25V11.25H33.75ZM11.25 48.75V11.25H22.5V22.5H37.5V11.25H48.75L48.7522 48.75H11.25Z" fill="black"/>
</g>
<defs>
<clipPath id="clip0_3199_66">
<rect width="60" height="60" fill="white"/>
</clipPath>
</defs>
</svg>
