<svg width="60" height="60" viewBox="0 0 60 60" fill="none" xmlns="http://www.w3.org/2000/svg">
<path d="M22.5 34.1419C19.9613 34.5094 16.8563 35.19 15.6431 36.4031C13.4456 38.6006 13.4456 42.1613 15.6431 44.3588C17.8406 46.5563 21.4013 46.5563 23.5988 44.3588C24.8119 43.1456 25.4925 40.0425 25.86 37.5019H34.1419C34.5094 40.0406 35.19 43.1456 36.4031 44.3588C38.6006 46.5563 42.1613 46.5563 44.3588 44.3588C46.5563 42.1613 46.5563 38.6006 44.3588 36.4031C43.1456 35.19 40.0425 34.5094 37.5019 34.1419V25.86C40.0406 25.4925 43.1456 24.8119 44.3588 23.5988C46.5563 21.4013 46.5563 17.8406 44.3588 15.6431C42.1631 13.4456 38.6006 13.4456 36.4031 15.6431C35.19 16.8563 34.5094 19.9594 34.1419 22.5H25.86C25.4925 19.9613 24.8119 16.8563 23.5988 15.6431C21.4013 13.4456 17.8406 13.4456 15.6431 15.6431C13.4456 17.8406 13.4456 21.4013 15.6431 23.5988C16.8563 24.8119 19.9594 25.4925 22.5 25.86V34.1419ZM20.9044 41.7469C20.1769 42.4331 19.0181 42.4275 18.2963 41.7056C17.58 40.9894 17.565 39.8306 18.255 39.0956C18.78 38.73 20.22 38.3306 21.9806 38.0175C21.6637 39.7762 21.2644 41.2275 20.9044 41.7469ZM41.7469 39.0956C42.4369 39.8287 42.4219 40.9875 41.7056 41.7038C40.9838 42.4256 39.825 42.4312 39.0975 41.745C38.7319 41.22 38.3325 39.78 38.0194 38.0194C39.7763 38.3363 41.2275 38.7356 41.7469 39.0956ZM39.0956 18.2531C39.8212 17.5706 40.98 17.5687 41.7038 18.2944C42.42 19.0106 42.435 20.1694 41.745 20.9044C41.22 21.27 39.78 21.6694 38.0212 21.9825C38.3362 20.2237 38.7356 18.7725 39.0956 18.2531ZM18.2531 20.9044C17.5631 20.1713 17.5781 19.0125 18.2944 18.2963C19.0219 17.5688 20.1806 17.5744 20.9044 18.255C21.27 18.78 21.6694 20.22 21.9825 21.9806C20.2237 21.6637 18.7725 21.2644 18.2531 20.9044ZM33.75 26.25V33.75H26.25V26.25H33.75ZM48.75 7.5H11.25C9.1875 7.5 7.5 9.1875 7.5 11.25V48.75C7.5 50.8125 9.1875 52.5 11.25 52.5H48.75C50.8125 52.5 52.5 50.8125 52.5 48.75V11.25C52.5 9.1875 50.8125 7.5 48.75 7.5ZM48.75 48.75H11.25V11.25H48.75V48.75Z" fill="black"/>
</svg>
